# xmcd
#
# Track frame offsets:
#	150
#	13192
#	32890
#	49519
#	63544
#	81898
#	95458
#	110947
#	122091
#	136048
#	151973
#	167926
#
# Disc length: 2420 seconds
#
# Revision: 1
# Processed by: cddbd v1.5.2PL0 Copyright (c) Steve Scherf et al.
# Submitted via: audiograbber 1.83.01
#
DISCID=a009720c
DTITLE=Gold Sisters, The - Places I've Been
DYEAR=2015
DGENRE=Bluegrass
TTITLE0=Ain't That Crazy
TTITLE1=O.K. Corral
TTITLE2=Places I've Been
TTITLE3=Steam Engine
TTITLE4=Raleigh
TTITLE5=Truth Is
TTITLE6=I've Got A Burden
TTITLE7=Late December
TTITLE8=Back With Me
TTITLE9=Summertime
TTITLE10=You Make Me Smile
TTITLE11=Master Of The Sea
EXTD=Produced by Ron Stewart and Gold Heart\nwww.goldheartsisters.com
EXTT0=
EXTT1=
EXTT2=
EXTT3=
EXTT4=
EXTT5=
EXTT6=
EXTT7=
EXTT8=
EXTT9=
EXTT10=
EXTT11=
PLAYORDER=
